<svg width="43" height="42" viewBox="0 0 43 42" fill="none" xmlns="http://www.w3.org/2000/svg">
<g id="Cart.svg" clip-path="url(#clip0_0_38)">
<path id="Vector" d="M0.133667 1.66577H6.70427L10.6214 27.19H36.7774L40.9473 15.8177V8.86815H13.4012L14.8265 19.4519" stroke="#232323" stroke-width="1.62395"/>
<path id="Vector_2" d="M14.4115 39.5577C16.8457 39.5577 18.8189 37.5845 18.8189 35.1503C18.8189 32.7162 16.8457 30.743 14.4115 30.743C11.9774 30.743 10.0042 32.7162 10.0042 35.1503C10.0042 37.5845 11.9774 39.5577 14.4115 39.5577Z" stroke="#232323" stroke-width="1.62395"/>
<path id="Vector_3" d="M31.8489 39.5577C34.283 39.5577 36.2563 37.5845 36.2563 35.1503C36.2563 32.7162 34.283 30.743 31.8489 30.743C29.4148 30.743 27.4415 32.7162 27.4415 35.1503C27.4415 37.5845 29.4148 39.5577 31.8489 39.5577Z" stroke="#232323" stroke-width="1.62395"/>
</g>
<defs>
<clipPath id="clip0_0_38">
<rect width="42.2226" height="41.14" fill="white" transform="translate(0.133667 0.00012207)"/>
</clipPath>
</defs>
</svg>
