<svg width="44" height="38" viewBox="0 0 44 38" fill="none" xmlns="http://www.w3.org/2000/svg">
<g id="payment.svg" clip-path="url(#clip0_0_52)">
<path id="Vector" d="M7.02607 17.0583V7.16704H38.9826M38.9826 7.16704H40.5044C41.2653 7.16704 42.7869 7.77573 42.7869 10.2105C42.7869 12.6453 42.7869 33.7975 42.7869 33.7975C42.7869 33.7975 42.7869 36.0801 39.7435 36.0801C36.7 36.0801 16.6638 36.0801 7.02607 36.0801C4.99708 36.0801 1.69998 34.5583 1.69998 29.2323V5.6453C1.69998 4.12355 2.7652 1.08008 7.02607 1.08008C11.287 1.08008 29.0913 1.08008 37.4609 1.08008C37.9681 1.08008 38.9826 1.53661 38.9826 3.36268C38.9826 5.18877 38.9826 6.65979 38.9826 7.16704Z" stroke="#232323" stroke-width="1.5"/>
<path id="Vector_2" d="M39.0437 20.041H37.4002V21.6845H39.0437V20.041Z" stroke="#232323" stroke-width="1.5"/>
</g>
<defs>
<clipPath id="clip0_0_52">
<rect width="43" height="37" fill="white" transform="translate(0.699982 0.0800781)"/>
</clipPath>
</defs>
</svg>
