<svg width="45" height="38" viewBox="0 0 45 38" fill="none" xmlns="http://www.w3.org/2000/svg">
<g id="Return.svg" clip-path="url(#clip0_0_65)">
<path id="Vector" d="M12.0902 36.0802C14.6973 36.0802 16.8107 33.9668 16.8107 31.3597C16.8107 28.7526 14.6973 26.6392 12.0902 26.6392C9.48319 26.6392 7.36975 28.7526 7.36975 31.3597C7.36975 33.9668 9.48319 36.0802 12.0902 36.0802Z" stroke="#232323" stroke-width="1.5"/>
<path id="Vector_2" d="M33.8295 36.0802C36.4366 36.0802 38.55 33.9668 38.55 31.3597C38.55 28.7526 36.4366 26.6392 33.8295 26.6392C31.2224 26.6392 29.109 28.7526 29.109 31.3597C29.109 33.9668 31.2224 36.0802 33.8295 36.0802Z" stroke="#232323" stroke-width="1.5"/>
<path id="Vector_3" d="M6.65512 31.3597H1.99672V20.4901M1.99672 20.4901V3.40927C1.73793 2.63288 1.84146 1.08008 4.32593 1.08008C6.8104 1.08008 19.8539 1.08008 26.065 1.08008C26.8415 1.08008 28.3943 1.54592 28.3943 3.40927C28.3943 5.27263 28.3943 7.80886 28.3943 8.84406M1.99672 20.4901H43.9222M28.3943 8.84406H37.7111L43.9222 15.8317V20.4901M28.3943 8.84406V20.4901M43.9222 20.4901V31.3597H39.2639M17.5247 31.3597H28.3943" stroke="#232323" stroke-width="1.5"/>
</g>
<defs>
<clipPath id="clip0_0_65">
<rect width="44" height="37" fill="white" transform="translate(0.900024 0.0800781)"/>
</clipPath>
</defs>
</svg>
