<svg width="163" height="55" viewBox="0 0 163 55" fill="none" xmlns="http://www.w3.org/2000/svg">
<g id="stylon-logo-new.svg" clip-path="url(#clip0_0_365)">
<path id="Vector" d="M67.6363 34.4981C68.8757 33.3459 69.488 31.7756 69.488 29.813C69.488 27.2083 67.3826 24.8346 63.3493 22.6686L63.3429 22.6651L63.3362 22.6622L63.2175 22.6094C61.8651 21.8771 60.984 21.2461 60.5447 20.7194C60.1215 20.2008 59.9054 19.5579 59.9054 18.7777C59.9054 17.9236 60.189 17.2636 60.746 16.7751C61.3055 16.2846 62.0829 16.028 63.1023 16.028C63.8281 16.028 64.4707 16.18 65.0351 16.4798L65.0361 16.4804C65.6092 16.7801 66.0411 17.1958 66.338 17.7285L66.4608 17.9487L66.6452 17.7769L68.2796 16.2543L68.4028 16.1396L68.3091 15.9997C67.7245 15.1278 67.0066 14.4704 66.1543 14.0345C65.3024 13.5893 64.3204 13.3699 63.214 13.3699C61.3977 13.3699 59.9172 13.8702 58.793 14.8877C57.6673 15.9067 57.1077 17.2471 57.1077 18.8896C57.1077 20.2962 57.4913 21.4749 58.271 22.4104L58.2717 22.4113C59.0526 23.3368 60.4137 24.2686 62.3304 25.2129C63.9342 26.0009 65.0539 26.7518 65.709 27.4607L65.7108 27.4626C66.3656 28.1528 66.6902 28.9611 66.6902 29.8969C66.6902 31.074 66.3326 31.9606 65.6381 32.5857L65.6372 32.5865C64.948 33.2146 63.9813 33.5407 62.7111 33.5407C61.7022 33.5407 60.8181 33.2935 60.0522 32.8038C59.2979 32.3155 58.7664 31.643 58.4549 30.7796L58.358 30.5111L58.1408 30.6965L56.4226 32.1632L56.313 32.2569L56.3687 32.3898C56.8689 33.5826 57.6693 34.5181 58.7663 35.1917C59.8722 35.8649 61.1573 36.1987 62.6133 36.1987C64.7162 36.1987 66.3986 35.6391 67.6363 34.4981ZM84.2916 16.3632H84.4892V16.1657V14.0005V13.8029H84.2916H71.7058H71.5083V14.0005V16.1657V16.3632H71.7058H76.5929V35.5682V35.7657H76.7904H79.1931H79.3906V35.5682V16.3632H84.2916ZM102.76 14.0995L102.933 13.8029H102.589H99.9211H99.8055L99.7482 13.9047L94.6526 23.0966L89.393 13.9024L89.3361 13.8029H89.2215H86.5395H86.1935L86.3694 14.1009L93.2285 25.7183V35.5682V35.7657H93.4261H95.8286H96.0262V35.5682V25.7175L102.76 14.0995ZM114.56 35.7657H114.758V35.5682V33.3611V33.1635H114.56H109.016V14.0005V13.8029H108.818H106.416H106.218V14.0005V35.5682V35.7657H106.416H114.56ZM118.665 32.9001L118.666 32.9007C120.884 35.0994 123.616 36.1987 126.851 36.1987C130.077 36.1987 132.804 35.0993 135.022 32.9007C137.239 30.702 138.349 27.9922 138.349 24.7843C138.349 21.5404 137.25 18.8209 135.049 16.64C132.851 14.4592 130.113 13.3699 126.851 13.3699C123.58 13.3699 120.837 14.4591 118.638 16.64C116.447 18.821 115.352 21.5407 115.352 24.7843C115.352 27.9828 116.457 30.6922 118.665 32.9001ZM161.672 36.3072L162.011 36.6517V36.1688V14.0005V13.8029H161.813H159.411H159.213V14.0005V29.8758L142.845 13.2612L142.506 12.9178V13.3998V35.5682V35.7657H142.705H145.107H145.305V35.5682V19.6517L161.672 36.3072ZM133.052 18.5535C134.719 20.2377 135.551 22.3102 135.551 24.7843C135.551 27.2485 134.714 29.3213 133.038 31.0151C131.373 32.6989 129.314 33.5407 126.851 33.5407C124.359 33.5407 122.291 32.6984 120.636 31.0155C118.979 29.3315 118.151 27.2587 118.151 24.7843C118.151 22.3647 118.948 20.3041 120.542 18.5911C122.129 16.8855 124.226 16.028 126.851 16.028C129.324 16.028 131.387 16.8699 133.052 18.5535Z" fill="#1A262F" stroke="#1A262F" stroke-width="0.395111"/>
<path id="Vector_2" d="M26.0617 20.7533C12.4415 12.2407 21.2964 4.40594 27.597 0.829956C24.8726 0.829956 18.1286 2.63374 15.848 8.49278C12.2688 17.6882 20.952 23.3075 25.5508 25.3509C36.7917 31.9269 33.7246 41.6984 31.1702 47.3177C34.7462 45.7852 45.9883 38.6332 43.9449 23.8184C42.3101 11.9666 32.025 7.30079 27.0867 6.44936L23.5106 9.51449C31.6844 10.3319 35.2605 14.5209 36.7931 16.6665C42.9233 25.2488 40.0284 33.5247 37.8146 36.5898C37.304 26.8836 30.1485 23.3075 26.0617 20.7533Z" fill="#385068"/>
<path id="Vector_3" d="M26.0617 20.7533C12.4415 12.2407 21.2964 4.40594 27.597 0.829956C24.8726 0.829956 18.1286 2.63374 15.848 8.49278C12.2688 17.6882 20.952 23.3075 25.5508 25.3509C36.7917 31.9269 33.7246 41.6984 31.1702 47.3177C34.7462 45.7852 45.9883 38.6332 43.9449 23.8184C42.3101 11.9666 32.025 7.30079 27.0867 6.44936L23.5106 9.51449C31.6844 10.3319 35.2605 14.5209 36.7931 16.6665C42.9233 25.2488 40.0284 33.5247 37.8146 36.5898C37.304 26.8836 30.1485 23.3075 26.0617 20.7533Z" fill="#1A262F"/>
<path id="Vector_4" d="M18.8027 33.7953C32.6334 41.9614 23.9791 50.0172 17.7709 53.7511C20.4944 53.6823 27.1906 51.7088 29.3225 45.7941C32.6685 36.5113 23.8463 31.1129 19.1973 29.1862C7.79402 22.8962 10.6134 13.0504 13.0252 7.36829C9.48907 8.99063 -1.56892 16.4241 0.847822 31.1826C2.78122 42.9894 13.181 47.3941 18.1391 48.1205L21.6366 44.9662C13.4449 44.3554 9.76408 40.258 8.17785 38.1518C1.83288 29.7268 4.51811 21.3806 6.65373 18.2605C7.40924 27.9508 14.6526 31.345 18.8027 33.7953Z" fill="#385068"/>
<path id="Vector_5" d="M18.8027 33.7953C32.6334 41.9614 23.9791 50.0172 17.7709 53.7511C20.4944 53.6823 27.1906 51.7088 29.3225 45.7941C32.6685 36.5113 23.8463 31.1129 19.1973 29.1862C7.79402 22.8962 10.6134 13.0504 13.0252 7.36829C9.48907 8.99063 -1.56892 16.4241 0.847822 31.1826C2.78122 42.9894 13.181 47.3941 18.1391 48.1205L21.6366 44.9662C13.4449 44.3554 9.76408 40.258 8.17785 38.1518C1.83288 29.7268 4.51811 21.3806 6.65373 18.2605C7.40924 27.9508 14.6526 31.345 18.8027 33.7953Z" fill="#1A262F"/>
</g>
<defs>
<clipPath id="clip0_0_365">
<rect width="162.983" height="53.34" fill="white" transform="translate(0.00836182 0.829956)"/>
</clipPath>
</defs>
</svg>
