<svg width="45" height="38" viewBox="0 0 45 38" fill="none" xmlns="http://www.w3.org/2000/svg">
<g id="Support.svg" clip-path="url(#clip0_0_79)">
<path id="Vector" d="M6.15465 17.6675C8.89102 17.6675 11.1093 19.8858 11.1093 22.6221V31.1256C11.1093 33.8619 8.89104 36.0802 6.15467 36.0802C3.4183 36.0802 1.20001 33.8619 1.20001 31.1256V22.6221C1.20001 19.8858 3.41828 17.6675 6.15465 17.6675Z" stroke="#232323" stroke-width="1.5"/>
<path id="Vector_2" d="M37.9007 17.6675C40.637 17.6675 42.8554 19.8858 42.8554 22.6221V31.1256C42.8554 33.8619 40.6371 36.0802 37.9008 36.0802C35.1645 36.0802 32.9461 33.8619 32.9461 31.1256V22.6221C32.9461 19.8858 35.1644 17.6675 37.9007 17.6675Z" stroke="#232323" stroke-width="1.5"/>
<path id="Vector_3" d="M7.28888 18.087V15.3658C7.28888 7.47602 13.6848 1.08008 21.5746 1.08008H22.4816C30.3714 1.08008 36.7673 7.47602 36.7673 15.3658V18.087" stroke="#232323" stroke-width="1.5"/>
</g>
<defs>
<clipPath id="clip0_0_79">
<rect width="44" height="37" fill="white" transform="translate(0.200012 0.0800781)"/>
</clipPath>
</defs>
</svg>
